# xmcd
#
# Track frame offsets:
#	150
#	11400
#	25626
#	37882
#	49710
#	64209
#	78496
#	95521
#	105326
#	123452
#	144714
#	160717
#	178959
#	213204
#	231528
#
# Disc length: 3332 seconds
#
# Revision: 0
# Processed by: cddbd v1.5.2PL0 Copyright (c) Steve Scherf et al.
# Submitted via: EasyCDDAExtractor 10.0.3.1
#
DISCID=c20d020f
DTITLE=New Riders Of The Purple Sage - Cactus Juice [CD1]
DYEAR=1900
DGENRE=
TTITLE0=Hi, Hello, How Are You
TTITLE1=She's No Angel
TTITLE2=Groupie
TTITLE3=Sunday Susie
TTITLE4=Kick In The Head
TTITLE5=Truck Drivin' Man
TTITLE6=Hello Mary Lou
TTITLE7=Sutter's Mill
TTITLE8=Dead Flowers
TTITLE9=Henry
TTITLE10=School Days
TTITLE11=Down In The Boondocks
TTITLE12=The Weight
TTITLE13=Superman
TTITLE14=Henry (Version 2)
EXTD=
EXTT0=
EXTT1=
EXTT2=
EXTT3=
EXTT4=
EXTT5=
EXTT6=
EXTT7=
EXTT8=
EXTT9=
EXTT10=
EXTT11=
EXTT12=
EXTT13=
EXTT14=
PLAYORDER=
